<?xml version="1.0" encoding="UTF-8" standalone="no"?> <svg width="64" height="64" viewBox="0 0 64 64" fill="none" xmlns="http://www.w3.org/2000/svg">
<path d="M7 8C7.55228 8 8 7.55228 8 7C8 6.44772 7.55228 6 7 6C6.44772 6 6 6.44772 6 7C6 7.55228 6.44772 8 7 8Z" fill="black"/>
<path d="M11 8C11.5523 8 12 7.55228 12 7C12 6.44772 11.5523 6 11 6C10.4477 6 10 6.44772 10 7C10 7.55228 10.4477 8 11 8Z" fill="black"/>
<path d="M15 8C15.5523 8 16 7.55228 16 7C16 6.44772 15.5523 6 15 6C14.4477 6 14 6.44772 14 7C14 7.55228 14.4477 8 15 8Z" fill="black"/>
<path d="M24 6C23.7348 6 23.4804 6.10536 23.2929 6.29289C23.1054 6.48043 23 6.73478 23 7C23 7.26522 23.1054 7.51957 23.2929 7.70711C23.4804 7.89464 23.7348 8 24 8H33C33.2652 8 33.5196 7.89464 33.7071 7.70711C33.8946 7.51957 34 7.26522 34 7C34 6.73478 33.8946 6.48043 33.7071 6.29289C33.5196 6.10536 33.2652 6 33 6H24Z" fill="black"/>
<path d="M39 6C38.7348 6 38.4804 6.10536 38.2929 6.29289C38.1054 6.48043 38 6.73478 38 7C38 7.26522 38.1054 7.51957 38.2929 7.70711C38.4804 7.89464 38.7348 8 39 8H54C54.2652 8 54.5196 7.89464 54.7071 7.70711C54.8946 7.51957 55 7.26522 55 7C55 6.73478 54.8946 6.48043 54.7071 6.29289C54.5196 6.10536 54.2652 6 54 6H39Z" fill="black"/>
<path d="M61 36C60.7348 36 60.4804 36.1054 60.2929 36.2929C60.1054 36.4804 60 36.7348 60 37V60H4V24C4 23.7348 3.89464 23.4804 3.70711 23.2929C3.51957 23.1054 3.26522 23 3 23C2.73478 23 2.48043 23.1054 2.29289 23.2929C2.10536 23.4804 2 23.7348 2 24V61C2 61.2652 2.10536 61.5196 2.29289 61.7071C2.48043 61.8946 2.73478 62 3 62H61C61.2652 62 61.5196 61.8946 61.7071 61.7071C61.8946 61.5196 62 61.2652 62 61V37C62 36.7348 61.8946 36.4804 61.7071 36.2929C61.5196 36.1054 61.2652 36 61 36Z" fill="black"/>
<path d="M61 2H3C2.73478 2 2.48043 2.10536 2.29289 2.29289C2.10536 2.48043 2 2.73478 2 3V20C2 20.2652 2.10536 20.5196 2.29289 20.7071C2.48043 20.8946 2.73478 21 3 21C3.26522 21 3.51957 20.8946 3.70711 20.7071C3.89464 20.5196 4 20.2652 4 20V12H57C57.2652 12 57.5196 11.8946 57.7071 11.7071C57.8946 11.5196 58 11.2652 58 11C58 10.7348 57.8946 10.4804 57.7071 10.2929C57.5196 10.1054 57.2652 10 57 10H20V4H60V33C60 33.2652 60.1054 33.5196 60.2929 33.7071C60.4804 33.8946 60.7348 34 61 34C61.2652 34 61.5196 33.8946 61.7071 33.7071C61.8946 33.5196 62 33.2652 62 33V3C62 2.73478 61.8946 2.48043 61.7071 2.29289C61.5196 2.10536 61.2652 2 61 2V2ZM18 10H4V4H18V10Z" fill="black"/>
<path d="M35 26C35.2652 26 35.5196 25.8946 35.7071 25.7071C35.8946 25.5196 36 25.2652 36 25V15C36 14.7348 35.8946 14.4804 35.7071 14.2929C35.5196 14.1054 35.2652 14 35 14H7C6.73478 14 6.48043 14.1054 6.29289 14.2929C6.10536 14.4804 6 14.7348 6 15V35C6 35.2652 6.10536 35.5196 6.29289 35.7071C6.48043 35.8946 6.73478 36 7 36H35C35.2652 36 35.5196 35.8946 35.7071 35.7071C35.8946 35.5196 36 35.2652 36 35V29C36 28.7348 35.8946 28.4804 35.7071 28.2929C35.5196 28.1054 35.2652 28 35 28C34.7348 28 34.4804 28.1054 34.2929 28.2929C34.1054 28.4804 34 28.7348 34 29V34H27.62L22.89 24.55C22.8061 24.3862 22.6786 24.2487 22.5216 24.1527C22.3645 24.0568 22.184 24.006 22 24.006C21.816 24.006 21.6355 24.0568 21.4784 24.1527C21.3214 24.2487 21.1939 24.3862 21.11 24.55L19.5 27.76L16.89 22.55C16.8061 22.3862 16.6786 22.2487 16.5216 22.1527C16.3645 22.0568 16.184 22.006 16 22.006C15.816 22.006 15.6355 22.0568 15.4784 22.1527C15.3214 22.2487 15.1939 22.3862 15.11 22.55L9.38 34H8V16H34V25C34 25.2652 34.1054 25.5196 34.2929 25.7071C34.4804 25.8946 34.7348 26 35 26ZM22 27.24L25.38 34H22.62L20.62 30L22 27.24ZM16 25.24L20.38 34H11.62L16 25.24Z" fill="black"/>
<path d="M26 21C26 21.5933 26.1759 22.1734 26.5056 22.6667C26.8352 23.1601 27.3038 23.5446 27.8519 23.7716C28.4001 23.9987 29.0033 24.0581 29.5853 23.9424C30.1672 23.8266 30.7018 23.5409 31.1213 23.1213C31.5409 22.7018 31.8266 22.1672 31.9424 21.5853C32.0581 21.0033 31.9987 20.4001 31.7716 19.8519C31.5446 19.3038 31.1601 18.8352 30.6667 18.5056C30.1734 18.1759 29.5933 18 29 18C28.2044 18 27.4413 18.3161 26.8787 18.8787C26.3161 19.4413 26 20.2044 26 21V21ZM30 21C30 21.1978 29.9414 21.3911 29.8315 21.5556C29.7216 21.72 29.5654 21.8482 29.3827 21.9239C29.2 21.9996 28.9989 22.0194 28.8049 21.9808C28.6109 21.9422 28.4327 21.847 28.2929 21.7071C28.153 21.5673 28.0578 21.3891 28.0192 21.1951C27.9806 21.0011 28.0004 20.8 28.0761 20.6173C28.1518 20.4346 28.28 20.2784 28.4444 20.1685C28.6089 20.0586 28.8022 20 29 20C29.2652 20 29.5196 20.1054 29.7071 20.2929C29.8946 20.4804 30 20.7348 30 21Z" fill="black"/>
<path d="M35 39H21C20.7348 39 20.4804 39.1054 20.2929 39.2929C20.1054 39.4804 20 39.7348 20 40C20 40.2652 20.1054 40.5196 20.2929 40.7071C20.4804 40.8946 20.7348 41 21 41H35C35.2652 41 35.5196 40.8946 35.7071 40.7071C35.8946 40.5196 36 40.2652 36 40C36 39.7348 35.8946 39.4804 35.7071 39.2929C35.5196 39.1054 35.2652 39 35 39Z" fill="black"/>
<path d="M7 46H35C35.2652 46 35.5196 45.8946 35.7071 45.7071C35.8946 45.5196 36 45.2652 36 45C36 44.7348 35.8946 44.4804 35.7071 44.2929C35.5196 44.1054 35.2652 44 35 44H7C6.73478 44 6.48043 44.1054 6.29289 44.2929C6.10536 44.4804 6 44.7348 6 45C6 45.2652 6.10536 45.5196 6.29289 45.7071C6.48043 45.8946 6.73478 46 7 46Z" fill="black"/>
<path d="M35 49H25C24.7348 49 24.4804 49.1054 24.2929 49.2929C24.1054 49.4804 24 49.7348 24 50C24 50.2652 24.1054 50.5196 24.2929 50.7071C24.4804 50.8946 24.7348 51 25 51H35C35.2652 51 35.5196 50.8946 35.7071 50.7071C35.8946 50.5196 36 50.2652 36 50C36 49.7348 35.8946 49.4804 35.7071 49.2929C35.5196 49.1054 35.2652 49 35 49Z" fill="black"/>
<path d="M7 51H21C21.2652 51 21.5196 50.8946 21.7071 50.7071C21.8946 50.5196 22 50.2652 22 50C22 49.7348 21.8946 49.4804 21.7071 49.2929C21.5196 49.1054 21.2652 49 21 49H7C6.73478 49 6.48043 49.1054 6.29289 49.2929C6.10536 49.4804 6 49.7348 6 50C6 50.2652 6.10536 50.5196 6.29289 50.7071C6.48043 50.8946 6.73478 51 7 51Z" fill="black"/>
<path d="M7 56H35C35.2652 56 35.5196 55.8946 35.7071 55.7071C35.8946 55.5196 36 55.2652 36 55C36 54.7348 35.8946 54.4804 35.7071 54.2929C35.5196 54.1054 35.2652 54 35 54H7C6.73478 54 6.48043 54.1054 6.29289 54.2929C6.10536 54.4804 6 54.7348 6 55C6 55.2652 6.10536 55.5196 6.29289 55.7071C6.48043 55.8946 6.73478 56 7 56Z" fill="black"/>
<path d="M58 50C58 49.7348 57.8946 49.4804 57.7071 49.2929C57.5196 49.1054 57.2652 49 57 49H39C38.7348 49 38.4804 49.1054 38.2929 49.2929C38.1054 49.4804 38 49.7348 38 50C38 50.2652 38.1054 50.5196 38.2929 50.7071C38.4804 50.8946 38.7348 51 39 51H57C57.2652 51 57.5196 50.8946 57.7071 50.7071C57.8946 50.5196 58 50.2652 58 50Z" fill="black"/>
<path d="M47 54C46.7348 54 46.4804 54.1054 46.2929 54.2929C46.1054 54.4804 46 54.7348 46 55C46 55.2652 46.1054 55.5196 46.2929 55.7071C46.4804 55.8946 46.7348 56 47 56H53C53.2652 56 53.5196 55.8946 53.7071 55.7071C53.8946 55.5196 54 55.2652 54 55C54 54.7348 53.8946 54.4804 53.7071 54.2929C53.5196 54.1054 53.2652 54 53 54H47Z" fill="black"/>
<path d="M39 54C38.7348 54 38.4804 54.1054 38.2929 54.2929C38.1054 54.4804 38 54.7348 38 55C38 55.2652 38.1054 55.5196 38.2929 55.7071C38.4804 55.8946 38.7348 56 39 56H43C43.2652 56 43.5196 55.8946 43.7071 55.7071C43.8946 55.5196 44 55.2652 44 55C44 54.7348 43.8946 54.4804 43.7071 54.2929C43.5196 54.1054 43.2652 54 43 54H39Z" fill="black"/>
</svg>
