<?xml version="1.0" encoding="UTF-8" standalone="no"?> <svg width="64" height="64" viewBox="0 0 64 64" fill="none" xmlns="http://www.w3.org/2000/svg">
<path d="M42.82 60C42.9364 59.6793 42.9973 59.3411 43 59V56.95C43.6566 56.95 44.3068 56.8207 44.9134 56.5694C45.52 56.3181 46.0712 55.9498 46.5355 55.4855C46.9998 55.0212 47.3681 54.47 47.6194 53.8634C47.8707 53.2568 48 52.6066 48 51.95V45.74C47.996 43.8195 47.4901 41.9334 46.5323 40.2687C45.5746 38.6041 44.1983 37.2187 42.54 36.25L37.67 33.4C37.6464 33.369 37.6263 33.3354 37.61 33.3C37.2004 32.7688 36.6389 32.3746 36 32.17V31.16C37.6252 30.4481 39.0323 29.3177 40.0777 27.884C41.123 26.4504 41.7691 24.765 41.95 23H42.5C43.4283 23 44.3185 22.6313 44.9749 21.9749C45.6312 21.3185 46 20.4283 46 19.5C46 18.5717 45.6312 17.6815 44.9749 17.0251C44.3185 16.3687 43.4283 16 42.5 16H42V11C42 9.67392 41.4732 8.40215 40.5355 7.46447C39.5979 6.52678 38.3261 6 37 6H27C25.6739 6 24.4021 6.52678 23.4645 7.46447C22.5268 8.40215 22 9.67392 22 11V16H21.5C20.5717 16 19.6815 16.3687 19.0251 17.0251C18.3687 17.6815 18 18.5717 18 19.5C18 20.4283 18.3687 21.3185 19.0251 21.9749C19.6815 22.6313 20.5717 23 21.5 23H22.05C22.2309 24.765 22.877 26.4504 23.9223 27.884C24.9677 29.3177 26.3748 30.4481 28 31.16V32.17C27.3611 32.3746 26.7996 32.7688 26.39 33.3C26.3737 33.3354 26.3536 33.369 26.33 33.4L21.46 36.25C19.8017 37.2187 18.4254 38.6041 17.4677 40.2687C16.5099 41.9334 16.004 43.8195 16 45.74V51.95C16 53.2761 16.5268 54.5479 17.4645 55.4855C18.4021 56.4232 19.6739 56.95 21 56.95V59C21.0027 59.3411 21.0636 59.6793 21.18 60H2V62H62V60H42.82ZM42 18H42.5C42.8978 18 43.2794 18.158 43.5607 18.4393C43.842 18.7206 44 19.1022 44 19.5C44 19.8978 43.842 20.2794 43.5607 20.5607C43.2794 20.842 42.8978 21 42.5 21H42V18ZM22 21H21.5C21.1022 21 20.7206 20.842 20.4393 20.5607C20.158 20.2794 20 19.8978 20 19.5C20 19.1022 20.158 18.7206 20.4393 18.4393C20.7206 18.158 21.1022 18 21.5 18H22V21ZM36.01 34.5C36.1298 34.6555 36.2105 34.8374 36.2453 35.0306C36.2802 35.2238 36.268 35.4225 36.21 35.61L35.44 38.33L33.4 36.8L35.44 34.08C35.6683 34.1588 35.8671 34.3053 36.01 34.5ZM34.24 39.93C34.28 39.96 34.33 39.97 34.38 40H29.62C29.67 39.97 29.72 39.96 29.76 39.93L32 38.25L34.24 39.93ZM30 32.67V31.8C31.32 32.0667 32.68 32.0667 34 31.8V32.67L32 35.33L30 32.67ZM24 11C24.0024 10.2051 24.3192 9.4434 24.8813 8.8813C25.4434 8.31921 26.2051 8.00237 27 8H37C37.7949 8.00237 38.5566 8.31921 39.1187 8.8813C39.6808 9.4434 39.9976 10.2051 40 11V15.22C39.6867 14.941 39.4357 14.5991 39.2634 14.2166C39.0911 13.834 39.0014 13.4195 39 13V12.24C39.0004 11.9284 38.9273 11.6211 38.7865 11.343C38.6458 11.065 38.4414 10.8241 38.19 10.64C37.9328 10.4519 37.6346 10.3276 37.3199 10.2771C37.0053 10.2267 36.6831 10.2517 36.38 10.35C33.5219 11.2 30.4781 11.2 27.62 10.35C27.3169 10.2517 26.9947 10.2267 26.6801 10.2771C26.3654 10.3276 26.0672 10.4519 25.81 10.64C25.5586 10.8241 25.3542 11.065 25.2135 11.343C25.0727 11.6211 24.9996 11.9284 25 12.24V13C24.9986 13.4195 24.9089 13.834 24.7366 14.2166C24.5643 14.5991 24.3133 14.941 24 15.22V11ZM24 22V17.58C24.8902 17.1896 25.6477 16.5488 26.1803 15.7356C26.7129 14.9225 26.9977 13.9721 27 13L27.01 12.25C30.2674 13.2367 33.7446 13.2332 37 12.24V13C37.0023 13.9721 37.2871 14.9225 37.8197 15.7356C38.3523 16.5488 39.1098 17.1896 40 17.58V22C40 24.1217 39.1571 26.1566 37.6569 27.6569C36.1566 29.1571 34.1217 30 32 30C29.8783 30 27.8434 29.1571 26.3431 27.6569C24.8429 26.1566 24 24.1217 24 22ZM27.99 34.5C28.1349 34.3074 28.3331 34.1614 28.56 34.08L30.6 36.8L28.56 38.33L27.78 35.61C27.7286 35.4212 27.7208 35.2231 27.7571 35.0308C27.7935 34.8385 27.8731 34.657 27.99 34.5V34.5ZM21 42V49H19V51H21V54.95C20.2051 54.9476 19.4434 54.6308 18.8813 54.0687C18.3192 53.5066 18.0024 52.7449 18 51.95V45.74C18.0045 44.169 18.4181 42.6263 19.2002 41.2639C19.9822 39.9014 21.1057 38.7662 22.46 37.97L25.84 36C25.85 36.05 25.85 36.11 25.86 36.16L26.64 38.88C26.7727 39.3412 27.0674 39.7389 27.47 40H23C22.4701 40.0016 21.9623 40.2128 21.5875 40.5875C21.2128 40.9623 21.0016 41.4701 21 42ZM41 59C41 59.2652 40.8946 59.5196 40.7071 59.7071C40.5196 59.8946 40.2652 60 40 60H24C23.7348 60 23.4804 59.8946 23.2929 59.7071C23.1054 59.5196 23 59.2652 23 59V58H41V59ZM41 56H23V42H41V56ZM41 40H36.53C36.9347 39.7411 37.2301 39.3425 37.36 38.88L38.14 36.16C38.15 36.11 38.15 36.06 38.16 36L41.54 37.97C42.8943 38.7662 44.0178 39.9014 44.7998 41.2639C45.5819 42.6263 45.9955 44.169 46 45.74V51.95C45.9976 52.7449 45.6808 53.5066 45.1187 54.0687C44.5566 54.6308 43.7949 54.9476 43 54.95V51H45V49H43V42C42.9984 41.4701 42.7872 40.9623 42.4125 40.5875C42.0377 40.2128 41.5299 40.0016 41 40Z" fill="black"/>
<path d="M35.307 25.75L33.984 24.25C33.429 24.7184 32.7262 24.9754 32 24.9754C31.2738 24.9754 30.571 24.7184 30.016 24.25L28.693 25.75C29.6064 26.5554 30.7822 26.9998 32 26.9998C33.2178 26.9998 34.3936 26.5554 35.307 25.75V25.75Z" fill="black"/>
<path d="M28 22C29.1046 22 30 21.1046 30 20C30 18.8954 29.1046 18 28 18C26.8954 18 26 18.8954 26 20C26 21.1046 26.8954 22 28 22Z" fill="black"/>
<path d="M36 22C37.1046 22 38 21.1046 38 20C38 18.8954 37.1046 18 36 18C34.8954 18 34 18.8954 34 20C34 21.1046 34.8954 22 36 22Z" fill="black"/>
<path d="M32 52C32.5933 52 33.1734 51.8241 33.6667 51.4944C34.1601 51.1648 34.5446 50.6962 34.7716 50.148C34.9987 49.5999 35.0581 48.9967 34.9424 48.4147C34.8266 47.8328 34.5409 47.2982 34.1213 46.8787C33.7018 46.4591 33.1672 46.1734 32.5853 46.0576C32.0033 45.9419 31.4001 46.0013 30.8519 46.2284C30.3038 46.4554 29.8352 46.8399 29.5056 47.3333C29.1759 47.8266 29 48.4067 29 49C29 49.7957 29.3161 50.5587 29.8787 51.1213C30.4413 51.6839 31.2044 52 32 52ZM32 48C32.1978 48 32.3911 48.0586 32.5556 48.1685C32.72 48.2784 32.8482 48.4346 32.9239 48.6173C32.9996 48.8 33.0194 49.0011 32.9808 49.1951C32.9422 49.3891 32.847 49.5673 32.7071 49.7071C32.5673 49.847 32.3891 49.9422 32.1951 49.9808C32.0011 50.0194 31.8 49.9996 31.6173 49.9239C31.4346 49.8482 31.2784 49.72 31.1685 49.5556C31.0586 49.3911 31 49.1978 31 49C31 48.7348 31.1054 48.4804 31.2929 48.2929C31.4804 48.1054 31.7348 48 32 48Z" fill="black"/>
<path d="M2.757 12.97L4.425 13.388C4.496 13.582 4.575 13.774 4.663 13.962L3.779 15.435C3.66436 15.6261 3.61686 15.8501 3.64404 16.0713C3.67121 16.2925 3.77151 16.4983 3.929 16.656L5.343 18.071C5.50065 18.2289 5.70657 18.3295 5.928 18.3569C6.14944 18.3842 6.37366 18.3368 6.565 18.222L8.038 17.338C8.226 17.425 8.417 17.504 8.613 17.575L9.03 19.242C9.08398 19.4584 9.20878 19.6506 9.38454 19.788C9.5603 19.9253 9.77694 19.9999 10 20H12C12.2231 19.9999 12.4397 19.9253 12.6155 19.788C12.7912 19.6506 12.916 19.4584 12.97 19.242L13.387 17.575C13.587 17.504 13.774 17.425 13.962 17.338L15.435 18.222C15.6263 18.3368 15.8506 18.3842 16.072 18.3569C16.2934 18.3295 16.4994 18.2289 16.657 18.071L18.071 16.656C18.2285 16.4983 18.3288 16.2925 18.356 16.0713C18.3831 15.8501 18.3356 15.6261 18.221 15.435L17.337 13.962C17.425 13.774 17.504 13.582 17.575 13.388L19.243 12.97C19.4592 12.9158 19.6512 12.791 19.7883 12.6152C19.9255 12.4395 20 12.2229 20 12V10C20 9.77707 19.9255 9.56054 19.7883 9.38479C19.6512 9.20905 19.4592 9.08417 19.243 9.03L17.575 8.612C17.5043 8.41667 17.425 8.22533 17.337 8.038L18.221 6.564C18.3356 6.37287 18.3831 6.14892 18.356 5.92771C18.3288 5.70649 18.2285 5.5007 18.071 5.343L16.657 3.929C16.4994 3.77111 16.2934 3.67048 16.072 3.64312C15.8506 3.61576 15.6263 3.66324 15.435 3.778L13.962 4.662C13.774 4.575 13.583 4.496 13.387 4.425L12.97 2.758C12.916 2.54157 12.7912 2.3494 12.6155 2.21205C12.4397 2.0747 12.2231 2.00006 12 2H10C9.77694 2.00006 9.5603 2.0747 9.38454 2.21205C9.20878 2.3494 9.08398 2.54157 9.03 2.758L8.613 4.425C8.413 4.496 8.226 4.575 8.038 4.662L6.565 3.778C6.37366 3.66324 6.14944 3.61576 5.928 3.64312C5.70657 3.67048 5.50065 3.77111 5.343 3.929L3.929 5.343C3.77151 5.5007 3.67121 5.70649 3.64404 5.92771C3.61686 6.14892 3.66436 6.37287 3.779 6.564L4.663 8.038C4.575 8.226 4.49567 8.41733 4.425 8.612L2.757 9.03C2.54075 9.08417 2.34881 9.20905 2.21166 9.38479C2.0745 9.56054 2.00001 9.77707 2 10V12C2.00001 12.2229 2.0745 12.4395 2.21166 12.6152C2.34881 12.791 2.54075 12.9158 2.757 12.97V12.97ZM4 10.78L5.453 10.417C5.62595 10.3737 5.78418 10.2849 5.9113 10.1599C6.03842 10.0349 6.12981 9.8782 6.176 9.706C6.28974 9.28595 6.45782 8.88254 6.676 8.506C6.76556 8.35138 6.81205 8.17559 6.81065 7.99691C6.80924 7.81823 6.75998 7.64319 6.668 7.49L5.9 6.205L6.209 5.895L7.492 6.665C7.64426 6.75548 7.81781 6.8039 7.99492 6.8053C8.17202 6.80671 8.34633 6.76105 8.5 6.673C8.87645 6.45465 9.27988 6.28655 9.7 6.173C9.87214 6.12657 10.0287 6.03497 10.1536 5.90767C10.2784 5.78037 10.3669 5.62202 10.41 5.449L10.781 4H11.219L11.583 5.452C11.6261 5.62502 11.7146 5.78337 11.8394 5.91067C11.9643 6.03797 12.1209 6.12957 12.293 6.176C12.7131 6.28955 13.1166 6.45765 13.493 6.676C13.6476 6.76556 13.8234 6.81205 14.0021 6.81065C14.1808 6.80924 14.3558 6.75998 14.509 6.668L15.8 5.9L16.109 6.21L15.34 7.493C15.2489 7.6447 15.1998 7.81783 15.1975 7.99474C15.1952 8.17165 15.2399 8.346 15.327 8.5C15.5452 8.87654 15.7133 9.27995 15.827 9.7C15.8732 9.8722 15.9646 10.0289 16.0917 10.1539C16.2188 10.2789 16.377 10.3677 16.55 10.411L18 10.78V11.22L16.547 11.583C16.374 11.6263 16.2158 11.7151 16.0887 11.8401C15.9616 11.9651 15.8702 12.1218 15.824 12.294C15.7103 12.7141 15.5422 13.1175 15.324 13.494C15.2344 13.6486 15.1879 13.8244 15.1894 14.0031C15.1908 14.1818 15.24 14.3568 15.332 14.51L16.1 15.8L15.79 16.109L14.508 15.34C14.3546 15.2486 14.1796 15.1997 14.0011 15.1983C13.8225 15.1969 13.6468 15.243 13.492 15.332C13.1155 15.5504 12.7121 15.7184 12.292 15.832C12.1199 15.8784 11.9633 15.97 11.8384 16.0973C11.7136 16.2246 11.6251 16.383 11.582 16.556L11.219 18H10.781L10.417 16.548C10.3739 16.375 10.2854 16.2166 10.1606 16.0893C10.0357 15.962 9.87914 15.8704 9.707 15.824C9.28688 15.7105 8.88345 15.5424 8.507 15.324C8.35238 15.2344 8.17659 15.1879 7.99791 15.1894C7.81923 15.1908 7.64419 15.24 7.491 15.332L6.206 16.1L5.9 15.8L6.669 14.517C6.76056 14.3633 6.80924 14.1879 6.80994 14.009C6.81064 13.8302 6.76335 13.6544 6.673 13.5C6.45482 13.1235 6.28673 12.7201 6.173 12.3C6.12681 12.1278 6.03542 11.9711 5.9083 11.8461C5.78118 11.7211 5.62295 11.6323 5.45 11.589L4 11.22V10.78Z" fill="black"/>
<path d="M11 15C11.7911 15 12.5645 14.7654 13.2223 14.3259C13.8801 13.8864 14.3928 13.2616 14.6955 12.5307C14.9983 11.7998 15.0775 10.9956 14.9231 10.2196C14.7688 9.44372 14.3878 8.73098 13.8284 8.17157C13.269 7.61216 12.5563 7.2312 11.7804 7.07686C11.0044 6.92252 10.2002 7.00173 9.46927 7.30448C8.73836 7.60723 8.11365 8.11992 7.67412 8.77772C7.2346 9.43552 7 10.2089 7 11C7 12.0609 7.42143 13.0783 8.17157 13.8284C8.92172 14.5786 9.93913 15 11 15ZM11 9C11.3956 9 11.7822 9.1173 12.1111 9.33706C12.44 9.55683 12.6964 9.86918 12.8478 10.2346C12.9991 10.6001 13.0387 11.0022 12.9616 11.3902C12.8844 11.7781 12.6939 12.1345 12.4142 12.4142C12.1345 12.6939 11.7781 12.8844 11.3902 12.9616C11.0022 13.0387 10.6001 12.9991 10.2346 12.8478C9.86918 12.6964 9.55682 12.44 9.33706 12.1111C9.1173 11.7822 9 11.3956 9 11C9 10.4696 9.21071 9.96086 9.58579 9.58579C9.96086 9.21072 10.4696 9 11 9V9Z" fill="black"/>
<path d="M49.293 14.707L50.707 13.293L48.414 11L50.707 8.707L49.293 7.293L46.293 10.293C46.1055 10.4805 46.0002 10.7348 46.0002 11C46.0002 11.2652 46.1055 11.5195 46.293 11.707L49.293 14.707Z" fill="black"/>
<path d="M58.707 14.707L61.707 11.707C61.8945 11.5195 61.9998 11.2652 61.9998 11C61.9998 10.7348 61.8945 10.4805 61.707 10.293L58.707 7.293L57.293 8.707L59.586 11L57.293 13.293L58.707 14.707Z" fill="black"/>
<path d="M54.0288 6.75726L52.0307 14.7575L53.9702 15.2419L55.9683 7.24164L54.0288 6.75726Z" fill="black"/>
<path d="M46 30V32H51.184C51.3518 32.4775 51.6379 32.9046 52.0156 33.2414C52.3933 33.5783 52.8502 33.8138 53.3437 33.9261C53.8371 34.0384 54.351 34.0237 54.8372 33.8835C55.3235 33.7432 55.7662 33.482 56.1241 33.1241C56.482 32.7662 56.7432 32.3235 56.8835 31.8373C57.0237 31.351 57.0384 30.8371 56.9261 30.3437C56.8138 29.8502 56.5783 29.3933 56.2414 29.0156C55.9046 28.6379 55.4775 28.3518 55 28.184V22H53V28.184C52.5818 28.3334 52.2019 28.5738 51.8878 28.8878C51.5738 29.2019 51.3334 29.5818 51.184 30H46ZM54 30C54.1978 30 54.3911 30.0586 54.5556 30.1685C54.72 30.2784 54.8482 30.4346 54.9239 30.6173C54.9996 30.8 55.0194 31.0011 54.9808 31.1951C54.9422 31.3891 54.847 31.5673 54.7071 31.7071C54.5673 31.847 54.3891 31.9422 54.1951 31.9808C54.0011 32.0194 53.8 31.9996 53.6173 31.9239C53.4346 31.8482 53.2784 31.72 53.1685 31.5556C53.0586 31.3911 53 31.1978 53 31C53 30.7348 53.1054 30.4804 53.2929 30.2929C53.4804 30.1054 53.7348 30 54 30Z" fill="black"/>
<path d="M9 22V28.184C8.52254 28.3518 8.09543 28.6379 7.75858 29.0156C7.42173 29.3933 7.18615 29.8502 7.07387 30.3437C6.96158 30.8371 6.97626 31.351 7.11652 31.8373C7.25678 32.3235 7.51805 32.7662 7.8759 33.1241C8.23375 33.482 8.67649 33.7432 9.16275 33.8835C9.649 34.0237 10.1629 34.0384 10.6563 33.9261C11.1498 33.8138 11.6067 33.5783 11.9844 33.2414C12.3621 32.9046 12.6482 32.4775 12.816 32H18V30H12.816C12.6666 29.5818 12.4262 29.2019 12.1121 28.8878C11.7981 28.5738 11.4182 28.3334 11 28.184V22H9ZM10 32C9.80222 32 9.60888 31.9414 9.44443 31.8315C9.27998 31.7216 9.15181 31.5654 9.07612 31.3827C9.00043 31.2 8.98063 30.9989 9.01921 30.8049C9.0578 30.6109 9.15304 30.4327 9.29289 30.2929C9.43274 30.153 9.61093 30.0578 9.80491 30.0192C9.99889 29.9806 10.2 30.0004 10.3827 30.0761C10.5654 30.1518 10.7216 30.28 10.8315 30.4444C10.9413 30.6089 11 30.8022 11 31C11 31.2652 10.8946 31.5196 10.7071 31.7071C10.5196 31.8946 10.2652 32 10 32Z" fill="black"/>
</svg>
