<?xml version="1.0" encoding="UTF-8" standalone="no"?> <svg width="64" height="64" viewBox="0 0 64 64" fill="none" xmlns="http://www.w3.org/2000/svg">
<path d="M50 58C50.5523 58 51 57.5523 51 57C51 56.4477 50.5523 56 50 56C49.4477 56 49 56.4477 49 57C49 57.5523 49.4477 58 50 58Z" fill="black"/>
<path d="M54 58C54.5523 58 55 57.5523 55 57C55 56.4477 54.5523 56 54 56C53.4477 56 53 56.4477 53 57C53 57.5523 53.4477 58 54 58Z" fill="black"/>
<path d="M10 58C10.5523 58 11 57.5523 11 57C11 56.4477 10.5523 56 10 56C9.44772 56 9 56.4477 9 57C9 57.5523 9.44772 58 10 58Z" fill="black"/>
<path d="M14 58C14.5523 58 15 57.5523 15 57C15 56.4477 14.5523 56 14 56C13.4477 56 13 56.4477 13 57C13 57.5523 13.4477 58 14 58Z" fill="black"/>
<path d="M46 12C46.2652 12 46.5196 11.8946 46.7071 11.7071C46.8946 11.5196 47 11.2652 47 11C47 10.7348 46.8946 10.4804 46.7071 10.2929C46.5196 10.1054 46.2652 10 46 10H30C29.7348 10 29.4804 10.1054 29.2929 10.2929C29.1054 10.4804 29 10.7348 29 11V15C29 15.2652 29.1054 15.5196 29.2929 15.7071C29.4804 15.8946 29.7348 16 30 16H46C46.2652 16 46.5196 15.8946 46.7071 15.7071C46.8946 15.5196 47 15.2652 47 15C47 14.7348 46.8946 14.4804 46.7071 14.2929C46.5196 14.1054 46.2652 14 46 14H31V12H46Z" fill="black"/>
<path d="M32 18C31.7348 18 31.4804 18.1054 31.2929 18.2929C31.1054 18.4804 31 18.7348 31 19C31 19.2652 31.1054 19.5196 31.2929 19.7071C31.4804 19.8946 31.7348 20 32 20H44C44.2652 20 44.5196 19.8946 44.7071 19.7071C44.8946 19.5196 45 19.2652 45 19C45 18.7348 44.8946 18.4804 44.7071 18.2929C44.5196 18.1054 44.2652 18 44 18H32Z" fill="black"/>
<path d="M28 23C28 23.2652 28.1054 23.5196 28.2929 23.7071C28.4804 23.8946 28.7348 24 29 24H52C52.2652 24 52.5196 23.8946 52.7071 23.7071C52.8946 23.5196 53 23.2652 53 23C53 22.7348 52.8946 22.4804 52.7071 22.2929C52.5196 22.1054 52.2652 22 52 22H29C28.7348 22 28.4804 22.1054 28.2929 22.2929C28.1054 22.4804 28 22.7348 28 23Z" fill="black"/>
<path d="M29 28H48C48.2652 28 48.5196 27.8946 48.7071 27.7071C48.8946 27.5196 49 27.2652 49 27C49 26.7348 48.8946 26.4804 48.7071 26.2929C48.5196 26.1054 48.2652 26 48 26H29C28.7348 26 28.4804 26.1054 28.2929 26.2929C28.1054 26.4804 28 26.7348 28 27C28 27.2652 28.1054 27.5196 28.2929 27.7071C28.4804 27.8946 28.7348 28 29 28Z" fill="black"/>
<path d="M61 2H15C14.7348 2 14.4804 2.10536 14.2929 2.29289C14.1054 2.48043 14 2.73478 14 3V15.772C13.6481 15.9081 13.3286 16.1164 13.0621 16.3836C12.7957 16.6507 12.5882 16.9707 12.453 17.323C12.4144 17.4247 12.3534 17.5164 12.2744 17.5912C12.1955 17.666 12.1006 17.722 11.997 17.755C11.8937 17.7901 11.7836 17.801 11.6754 17.7868C11.5672 17.7726 11.4637 17.7336 11.373 17.673C10.9928 17.4203 10.5542 17.2693 10.0991 17.2343C9.6439 17.1993 9.18737 17.2815 8.773 17.473C8.35458 17.6584 7.98953 17.946 7.71149 18.3095C7.43345 18.673 7.25136 19.1006 7.182 19.553C7.14273 19.8151 7.20914 20.0822 7.36666 20.2954C7.52417 20.5086 7.75988 20.6505 8.022 20.69C8.2839 20.7269 8.5498 20.6595 8.76259 20.5025C8.97538 20.3454 9.11807 20.1111 9.16 19.85C9.18186 19.729 9.23354 19.6153 9.31037 19.5193C9.38719 19.4233 9.48673 19.3479 9.6 19.3C9.70995 19.249 9.83125 19.2275 9.95203 19.2375C10.0728 19.2475 10.1889 19.2887 10.289 19.357C10.6298 19.5771 11.0153 19.7186 11.4176 19.771C11.8199 19.8235 12.2288 19.7857 12.6147 19.6603C13.0005 19.535 13.3536 19.3252 13.6482 19.0463C13.9429 18.7674 14.1717 18.4264 14.318 18.048C14.3711 17.9103 14.4647 17.7919 14.5865 17.7083C14.7082 17.6248 14.8524 17.5801 15 17.5801C15.1476 17.5801 15.2918 17.6248 15.4135 17.7083C15.5353 17.7919 15.6289 17.9103 15.682 18.048C15.8285 18.4264 16.0575 18.7673 16.3523 19.0461C16.6471 19.3249 17.0003 19.5345 17.3862 19.6597C17.7722 19.7849 18.1812 19.8225 18.5835 19.7698C18.9858 19.717 19.3713 19.5754 19.712 19.355C19.8359 19.2768 19.9804 19.2376 20.1268 19.2424C20.2732 19.2472 20.4148 19.2958 20.5333 19.382C20.6517 19.4682 20.7416 19.5879 20.7913 19.7257C20.841 19.8635 20.8482 20.0131 20.812 20.155C20.7082 20.5471 20.693 20.9575 20.7676 21.3562C20.8421 21.7549 21.0046 22.132 21.2432 22.4601C21.4817 22.7882 21.7903 23.059 22.1466 23.2529C22.5029 23.4468 22.898 23.5589 23.303 23.581C23.4506 23.5893 23.5922 23.642 23.7093 23.7322C23.8264 23.8224 23.9134 23.9459 23.9591 24.0865C24.0047 24.2271 24.0068 24.3782 23.965 24.52C23.9232 24.6618 23.8396 24.7876 23.725 24.881C23.4106 25.1372 23.1571 25.4602 22.983 25.8265C22.809 26.1929 22.7187 26.5934 22.7187 26.999C22.7187 27.4046 22.809 27.8051 22.983 28.1715C23.1571 28.5378 23.4106 28.8608 23.725 29.117C23.84 29.21 23.9241 29.3357 23.9663 29.4774C24.0084 29.6192 24.0067 29.7704 23.9612 29.9112C23.9157 30.0519 23.8287 30.1756 23.7115 30.2659C23.5944 30.3561 23.4527 30.4088 23.305 30.417C22.8999 30.439 22.5047 30.551 22.1483 30.7448C21.7919 30.9386 21.4831 31.2094 21.2445 31.5375C21.0058 31.8656 20.8433 32.2428 20.7686 32.6416C20.694 33.0404 20.7092 33.4508 20.813 33.843C20.8537 33.9856 20.849 34.1373 20.7995 34.2771C20.75 34.4168 20.6583 34.5377 20.537 34.623C20.4191 34.7137 20.2755 34.7648 20.1267 34.7689C19.978 34.7731 19.8318 34.73 19.709 34.646C19.3682 34.4259 18.9827 34.2844 18.5804 34.232C18.1781 34.1795 17.7692 34.2173 17.3833 34.3427C16.9975 34.468 16.6444 34.6778 16.3498 34.9567C16.0551 35.2356 15.8263 35.5766 15.68 35.955C15.6269 36.0927 15.5333 36.2111 15.4115 36.2947C15.2898 36.3782 15.1456 36.4229 14.998 36.4229C14.8504 36.4229 14.7062 36.3782 14.5845 36.2947C14.4627 36.2111 14.3691 36.0927 14.316 35.955C14.1695 35.5766 13.9405 35.2357 13.6457 34.9569C13.3509 34.6781 12.9977 34.4685 12.6118 34.3433C12.2258 34.2181 11.8168 34.1805 11.4145 34.2332C11.0122 34.286 10.6267 34.4276 10.286 34.648C10.1621 34.7262 10.0176 34.7654 9.87122 34.7606C9.7248 34.7558 9.5832 34.7072 9.46473 34.621C9.34625 34.5348 9.25635 34.4151 9.20666 34.2773C9.15697 34.1395 9.14978 33.9899 9.186 33.848C9.28983 33.4559 9.30501 33.0455 9.23043 32.6468C9.15585 32.2481 8.99339 31.871 8.75484 31.5429C8.51629 31.2148 8.20766 30.944 7.85136 30.7501C7.49505 30.5562 7.10004 30.4441 6.695 30.422C6.54743 30.4137 6.40581 30.361 6.28873 30.2708C6.17165 30.1806 6.08458 30.0571 6.03894 29.9165C5.99331 29.7759 5.99124 29.6248 6.03301 29.483C6.07478 29.3412 6.15843 29.2154 6.273 29.122C6.5876 28.8659 6.84121 28.5429 7.01538 28.1766C7.18955 27.8102 7.27992 27.4097 7.27992 27.004C7.27992 26.5983 7.18955 26.1978 7.01538 25.8314C6.84121 25.4651 6.5876 25.1421 6.273 24.886C6.15843 24.7926 6.07478 24.6668 6.03301 24.525C5.99124 24.3832 5.99331 24.2321 6.03894 24.0915C6.08458 23.9509 6.17165 23.8274 6.28873 23.7372C6.40581 23.647 6.54743 23.5943 6.695 23.586C6.95982 23.5715 7.20805 23.4525 7.38508 23.255C7.56211 23.0575 7.65345 22.7978 7.639 22.533C7.63371 22.4012 7.602 22.2718 7.54575 22.1525C7.4895 22.0332 7.40987 21.9264 7.31157 21.8384C7.21326 21.7505 7.0983 21.6832 6.97349 21.6405C6.84868 21.5978 6.71657 21.5807 6.585 21.59C6.03534 21.621 5.50787 21.8174 5.07173 22.1533C4.63559 22.4893 4.31112 22.9492 4.14086 23.4727C3.97059 23.9963 3.96248 24.5591 4.11757 25.0873C4.27266 25.6155 4.58373 26.0846 5.01 26.433C5.09408 26.5017 5.16183 26.5881 5.20837 26.6862C5.2549 26.7843 5.27904 26.8915 5.27904 27C5.27904 27.1085 5.2549 27.2157 5.20837 27.3138C5.16183 27.4119 5.09408 27.4983 5.01 27.567C4.58264 27.9151 4.27058 28.3844 4.11482 28.9131C3.95906 29.4419 3.96689 30.0054 4.13726 30.5296C4.30764 31.0538 4.6326 31.5142 5.06945 31.8504C5.50631 32.1865 6.03463 32.3826 6.585 32.413C6.69346 32.419 6.79921 32.4491 6.89458 32.5011C6.98994 32.5531 7.07252 32.6257 7.13631 32.7136C7.20009 32.8015 7.24348 32.9026 7.26332 33.0094C7.28316 33.1162 7.27895 33.226 7.251 33.331C7.10965 33.8638 7.13284 34.4269 7.31753 34.9463C7.50221 35.4656 7.83974 35.917 8.28573 36.2409C8.73173 36.5649 9.26531 36.7463 9.81634 36.7613C10.3674 36.7763 10.91 36.6242 11.373 36.325C11.4645 36.2664 11.5678 36.2287 11.6755 36.2149C11.7833 36.201 11.8928 36.2112 11.9961 36.2448C12.0994 36.2784 12.194 36.3345 12.273 36.409C12.352 36.4836 12.4135 36.5748 12.453 36.676C12.6179 37.1114 12.8926 37.4967 13.2504 37.7946C13.6082 38.0924 14.0369 38.2927 14.495 38.376C14.3456 38.4585 14.2202 38.5784 14.131 38.724L10.269 45.417L9.426 42.28C9.3919 42.1531 9.33313 42.0342 9.25305 41.93C9.17297 41.8259 9.07315 41.7385 8.9593 41.673C8.84544 41.6074 8.71978 41.5649 8.58949 41.5479C8.45921 41.5309 8.32686 41.5398 8.2 41.574L5.071 42.411L7.331 38.5C7.46152 38.2704 7.49594 37.9986 7.42675 37.7437C7.35756 37.4889 7.19038 37.2718 6.96169 37.1397C6.73301 37.0077 6.46138 36.9715 6.20608 37.039C5.95079 37.1065 5.73255 37.2722 5.599 37.5L2.134 43.5C2.0352 43.6712 1.98935 43.8679 2.00226 44.0651C2.01518 44.2624 2.08626 44.4514 2.20654 44.6083C2.32682 44.7652 2.4909 44.8829 2.67804 44.9465C2.86519 45.0102 3.06701 45.017 3.258 44.966L7 43.966V52H3C2.73478 52 2.48043 52.1054 2.29289 52.2929C2.10536 52.4804 2 52.7348 2 53V55C2.00212 56.8559 2.7403 58.6351 4.05259 59.9474C5.36489 61.2597 7.14413 61.9979 9 62H22C22.2652 62 22.5196 61.8946 22.7071 61.7071C22.8946 61.5196 23 61.2652 23 61C23 60.7348 22.8946 60.4804 22.7071 60.2929C22.5196 60.1054 22.2652 60 22 60H9C7.6744 59.9984 6.40356 59.4711 5.46622 58.5338C4.52888 57.5964 4.00159 56.3256 4 55V54H25V55C25 55.2652 25.1054 55.5196 25.2929 55.7071C25.4804 55.8946 25.7348 56 26 56H38C38.2652 56 38.5196 55.8946 38.7071 55.7071C38.8946 55.5196 39 55.2652 39 55V54H60V55C59.9984 56.3256 59.4711 57.5964 58.5338 58.5338C57.5964 59.4711 56.3256 59.9984 55 60H26C25.7348 60 25.4804 60.1054 25.2929 60.2929C25.1054 60.4804 25 60.7348 25 61C25 61.2652 25.1054 61.5196 25.2929 61.7071C25.4804 61.8946 25.7348 62 26 62H55C56.8559 61.9979 58.6351 61.2597 59.9474 59.9474C61.2597 58.6351 61.9979 56.8559 62 55V53C62 52.7348 61.8946 52.4804 61.7071 52.2929C61.5196 52.1054 61.2652 52 61 52H57V43C57 42.7348 56.8946 42.4804 56.7071 42.2929C56.5196 42.1054 56.2652 42 56 42C55.7348 42 55.4804 42.1054 55.2929 42.2929C55.1054 42.4804 55 42.7348 55 43V52H38C37.7348 52 37.4804 52.1054 37.2929 52.2929C37.1054 52.4804 37 52.7348 37 53V54H27V53C27 52.7348 26.8946 52.4804 26.7071 52.2929C26.5196 52.1054 26.2652 52 26 52H9V48.341C9.06089 48.5123 9.16774 48.6636 9.30884 48.7782C9.44994 48.8928 9.61986 48.9665 9.8 48.991C9.99659 49.0176 10.1966 48.9851 10.3747 48.8976C10.5528 48.8102 10.7008 48.6718 10.8 48.5L15 41.218L19.2 48.5C19.2877 48.6519 19.4138 48.778 19.5656 48.8658C19.7174 48.9535 19.8896 48.9998 20.065 49C20.1088 49 20.1526 48.997 20.196 48.991C20.392 48.9654 20.576 48.8823 20.7248 48.7522C20.8736 48.6221 20.9805 48.4508 21.032 48.26L22.242 43.76L26.742 44.96C26.9322 45.0099 27.1329 45.0026 27.319 44.9391C27.505 44.8756 27.6683 44.7586 27.7882 44.6028C27.9082 44.447 27.9795 44.2593 27.9934 44.0631C28.0072 43.867 27.9629 43.6711 27.866 43.5L22.766 34.664C22.871 34.2252 22.8658 33.7673 22.751 33.331C22.723 33.226 22.7188 33.1162 22.7387 33.0094C22.7585 32.9026 22.8019 32.8015 22.8657 32.7136C22.9295 32.6257 23.0121 32.5531 23.1074 32.5011C23.2028 32.4491 23.3085 32.419 23.417 32.413C23.8783 32.3876 24.3256 32.2455 24.717 32H54C54.2652 32 54.5196 31.8946 54.7071 31.7071C54.8946 31.5196 55 31.2652 55 31C55 30.4696 55.2107 29.9609 55.5858 29.5858C55.9609 29.2107 56.4696 29 57 29C57.2652 29 57.5196 28.8946 57.7071 28.7071C57.8946 28.5196 58 28.2652 58 28V10C58 9.73478 57.8946 9.48043 57.7071 9.29289C57.5196 9.10536 57.2652 9 57 9C56.4696 9 55.9609 8.78929 55.5858 8.41421C55.2107 8.03914 55 7.53043 55 7C55 6.73478 54.8946 6.48043 54.7071 6.29289C54.5196 6.10536 54.2652 6 54 6H22C21.7348 6 21.4804 6.10536 21.2929 6.29289C21.1054 6.48043 21 6.73478 21 7C21 7.53043 20.7893 8.03914 20.4142 8.41421C20.0391 8.78929 19.5304 9 19 9C18.7348 9 18.4804 9.10536 18.2929 9.29289C18.1054 9.48043 18 9.73478 18 10V14.6C18 14.8652 18.1054 15.1196 18.2929 15.3071C18.4804 15.4946 18.7348 15.6 19 15.6C19.2652 15.6 19.5196 15.4946 19.7071 15.3071C19.8946 15.1196 20 14.8652 20 14.6V10.873C20.6913 10.6932 21.322 10.3321 21.8271 9.82708C22.3321 9.32202 22.6932 8.69127 22.873 8H53.126C53.3062 8.69125 53.6675 9.32193 54.1727 9.82696C54.6779 10.332 55.3087 10.6931 56 10.873V27.127C55.3087 27.3069 54.6779 27.668 54.1727 28.173C53.6675 28.6781 53.3062 29.3087 53.126 30H25.974C26.0297 29.5443 25.9686 29.0819 25.7964 28.6563C25.6243 28.2307 25.3468 27.8559 24.99 27.567C24.9059 27.4983 24.8382 27.4119 24.7916 27.3138C24.7451 27.2157 24.721 27.1085 24.721 27C24.721 26.8915 24.7451 26.7843 24.7916 26.6862C24.8382 26.5881 24.9059 26.5017 24.99 26.433C25.4174 26.0849 25.7294 25.6156 25.8852 25.0869C26.0409 24.5581 26.0331 23.9946 25.8627 23.4704C25.6924 22.9462 25.3674 22.4858 24.9305 22.1496C24.4937 21.8135 23.9654 21.6174 23.415 21.587C23.3065 21.581 23.2008 21.5509 23.1054 21.4989C23.0101 21.4469 22.9275 21.3743 22.8637 21.2864C22.7999 21.1985 22.7565 21.0974 22.7367 20.9906C22.7168 20.8838 22.721 20.774 22.749 20.669C22.8903 20.1362 22.8672 19.5731 22.6825 19.0537C22.4978 18.5344 22.1603 18.083 21.7143 17.7591C21.2683 17.4351 20.7347 17.2537 20.1837 17.2387C19.6326 17.2237 19.09 17.3758 18.627 17.675C18.5355 17.7336 18.4322 17.7713 18.3245 17.7851C18.2167 17.799 18.1072 17.7888 18.0039 17.7552C17.9006 17.7216 17.806 17.6655 17.727 17.591C17.648 17.5164 17.5865 17.4252 17.547 17.324C17.4116 16.9717 17.2041 16.6517 16.9376 16.3844C16.6712 16.1171 16.3518 15.9085 16 15.772V4H60V15C60 15.2652 60.1054 15.5196 60.2929 15.7071C60.4804 15.8946 60.7348 16 61 16C61.2652 16 61.5196 15.8946 61.7071 15.7071C61.8946 15.5196 62 15.2652 62 15V3C62 2.73478 61.8946 2.48043 61.7071 2.29289C61.5196 2.10536 61.2652 2 61 2V2ZM21.8 41.574C21.5441 41.5055 21.2714 41.5414 21.042 41.6738C20.8125 41.8062 20.6449 42.0242 20.576 42.28L19.733 45.413L15.866 38.72C15.7771 38.5746 15.652 38.4547 15.503 38.372C15.9612 38.2884 16.39 38.088 16.7481 37.7902C17.1061 37.4924 17.3813 37.1073 17.547 36.672C17.5862 36.5706 17.6475 36.4791 17.7265 36.4043C17.8055 36.3296 17.9001 36.2733 18.0035 36.2397C18.107 36.2061 18.2166 36.1959 18.3244 36.21C18.4323 36.2241 18.5356 36.262 18.627 36.321C19.0456 36.5941 19.5319 36.7456 20.0315 36.7586C20.5312 36.7717 21.0247 36.6458 21.457 36.395L24.928 42.406L21.8 41.574Z" fill="black"/>
<path d="M61 18C60.7348 18 60.4804 18.1054 60.2929 18.2929C60.1053 18.4804 60 18.7348 60 19V34H26.8C26.5348 34 26.2804 34.1054 26.0929 34.2929C25.9053 34.4804 25.8 34.7348 25.8 35C25.8 35.2652 25.9053 35.5196 26.0929 35.7071C26.2804 35.8946 26.5348 36 26.8 36H61C61.2652 36 61.5196 35.8946 61.7071 35.7071C61.8946 35.5196 62 35.2652 62 35V19C62 18.7348 61.8946 18.4804 61.7071 18.2929C61.5196 18.1054 61.2652 18 61 18Z" fill="black"/>
<path d="M56 40C56.2652 40 56.5196 39.8946 56.7071 39.7071C56.8946 39.5196 57 39.2652 57 39C57 38.7348 56.8946 38.4804 56.7071 38.2929C56.5196 38.1054 56.2652 38 56 38H31C30.7348 38 30.4804 38.1054 30.2929 38.2929C30.1054 38.4804 30 38.7348 30 39V49C30 49.2652 30.1054 49.5196 30.2929 49.7071C30.4804 49.8946 30.7348 50 31 50H47C47.2652 50 47.5196 49.8946 47.7071 49.7071C47.8946 49.5196 48 49.2652 48 49V48H51C51.2652 48 51.5196 47.8946 51.7071 47.7071C51.8946 47.5196 52 47.2652 52 47C52 46.7348 51.8946 46.4804 51.7071 46.2929C51.5196 46.1054 51.2652 46 51 46H48V44H52C52.2652 44 52.5196 43.8946 52.7071 43.7071C52.8946 43.5196 53 43.2652 53 43C53 42.7348 52.8946 42.4804 52.7071 42.2929C52.5196 42.1054 52.2652 42 52 42H48V40H56ZM44 40L39 43.75L34 40H44ZM46 48H32V41L38.4 45.8C38.5731 45.9298 38.7836 46 39 46C39.2164 46 39.4269 45.9298 39.6 45.8L46 41V48Z" fill="black"/>
<path d="M15 23C15.4978 23.0031 15.9906 23.0994 16.453 23.284C16.6982 23.3736 16.9687 23.3637 17.2067 23.2565C17.4447 23.1493 17.6314 22.9533 17.7269 22.7103C17.8223 22.4673 17.8189 22.1967 17.7175 21.9561C17.6161 21.7156 17.4246 21.5243 17.184 21.423C15.8932 20.9125 14.4658 20.8625 13.1424 21.2814C11.819 21.7003 10.6804 22.5626 9.91851 23.723C9.1566 24.8833 8.81793 26.2708 8.95954 27.6517C9.10115 29.0326 9.71439 30.3225 10.696 31.304C11.6775 32.2856 12.9674 32.8988 14.3483 33.0405C15.7292 33.1821 17.1167 32.8434 18.277 32.0815C19.4374 31.3196 20.2997 30.181 20.7186 28.8576C21.1375 27.5342 21.0875 26.1068 20.577 24.816C20.4757 24.5754 20.2844 24.3839 20.0439 24.2825C19.8033 24.181 19.5327 24.1777 19.2897 24.2731C19.0467 24.3686 18.8507 24.5552 18.7435 24.7933C18.6363 25.0313 18.6264 25.3018 18.716 25.547C19.0252 26.3424 19.0714 27.2159 18.848 28.0396C18.6246 28.8632 18.1433 29.5936 17.4746 30.1238C16.8058 30.6539 15.9849 30.956 15.132 30.9856C14.2791 31.0152 13.4392 30.7709 12.7353 30.2884C12.0314 29.8059 11.5005 29.1107 11.2205 28.3046C10.9404 27.4984 10.926 26.6238 11.1792 25.8088C11.4324 24.9939 11.94 24.2815 12.6276 23.776C13.3152 23.2705 14.1466 22.9986 15 23V23Z" fill="black"/>
</svg>
