<?xml version="1.0" encoding="utf-8"?><svg version="1.1" id="Layer_1" xmlns="http://www.w3.org/2000/svg" xmlns:xlink="http://www.w3.org/1999/xlink" x="0px" y="0px" viewBox="0 0 122.88 91.43" style="enable-background:new 0 0 122.88 91.43" xml:space="preserve"><style type="text/css">.st0{fill-rule:evenodd;clip-rule:evenodd;}</style><g><path class="st0" d="M98.58,42.86h21.83c1.36,0,2.47,1.11,2.47,2.47v15.42c0,1.36-1.11,2.47-2.47,2.47H98.58 c-1.36,0-2.47-1.11-2.47-2.47V45.32C96.11,43.97,97.22,42.86,98.58,42.86L98.58,42.86L98.58,42.86z M13.39,35.43 c7.4,0,13.39,6,13.39,13.39s-6,13.39-13.39,13.39S0,56.22,0,48.83S6,35.43,13.39,35.43L13.39,35.43L13.39,35.43z M11.54,42.09h1.64 c0.3,0,0.55,0.25,0.55,0.55v6.31h5.76c0.3,0,0.55,0.25,0.55,0.55v1.64c0,0.3-0.25,0.55-0.55,0.55h-8.49v-9.04 C10.99,42.33,11.24,42.09,11.54,42.09L11.54,42.09L11.54,42.09z M13.39,38.48c5.72,0,10.35,4.63,10.35,10.35 c0,5.72-4.63,10.35-10.35,10.35c-5.72,0-10.35-4.63-10.35-10.35C3.04,43.11,7.68,38.48,13.39,38.48L13.39,38.48L13.39,38.48z M52.51,77.77c3.38,9.96,17.53,10.33,20.71,0c3.75,3.36,14.82,4.05,18.94,6.35c1.3,0.72,2.48,1.66,3.43,2.9 c0.63,0.84,1.48,2.39,2.12,4.12h-69.7c0.64-1.73,1.49-3.28,2.12-4.12c0.95-1.25,2.12-2.17,3.43-2.9 C37.69,81.81,48.76,81.13,52.51,77.77L52.51,77.77L52.51,77.77L52.51,77.77z M66.7,15.65c0.59-0.1,0.66-0.09,1.15,0.03V5.35 l-11.2,3.01v12.67c0.01,0.07,0.01,0.15,0.01,0.22v0c0,1.8-2.38,3.59-4.71,3.99c-2.33,0.4-4.22-0.73-4.22-2.53 c0-1.8,1.89-3.59,4.22-3.99c0.88-0.15,1.69-0.08,2.37,0.15V3.61h0.1L70.18,0v17.35c0.03,0.14,0.04,0.27,0.04,0.41c0,0,0,0,0,0 c0,1.5-1.58,3-3.52,3.33c-1.95,0.34-3.52-0.61-3.52-2.11C63.18,17.48,64.75,15.98,66.7,15.65L66.7,15.65L66.7,15.65L66.7,15.65z M49.91,57.13c-0.71,0.03-1.24,0.18-1.61,0.42c-0.21,0.15-0.36,0.32-0.47,0.54c-0.11,0.24-0.17,0.53-0.16,0.86 c0.03,0.97,0.54,2.25,1.52,3.72l0.01,0.02l0,0l3.2,5.09c1.28,2.04,2.63,4.12,4.31,5.65c1.6,1.47,3.56,2.46,6.14,2.47 c2.79,0.01,4.84-1.02,6.5-2.58c1.73-1.61,3.08-3.83,4.43-6.03l3.6-5.94c0.67-1.53,0.92-2.56,0.77-3.17 c-0.09-0.36-0.49-0.54-1.16-0.57c-0.15-0.01-0.29-0.01-0.43,0c-0.17,0-0.33,0.01-0.51,0.03c-0.09,0.01-0.19,0-0.28-0.02 c-0.32,0.02-0.65,0-0.99-0.05L76,52.62c-9.16,1.45-16.02-5.36-25.71-1.37l0.69,5.93C50.63,57.19,50.25,57.18,49.91,57.13 L49.91,57.13L49.91,57.13L49.91,57.13z M78.23,55.98c0.89,0.27,1.46,0.84,1.69,1.75c0.26,1-0.02,2.43-0.88,4.38l0,0 c-0.02,0.03-0.03,0.07-0.05,0.1l-3.65,6.01c-1.41,2.32-2.84,4.64-4.74,6.42c-1.98,1.84-4.41,3.07-7.73,3.07 c-3.1-0.01-5.44-1.19-7.36-2.95c-1.85-1.7-3.27-3.88-4.62-6.02l-3.2-5.09c-1.17-1.75-1.78-3.34-1.81-4.65 c-0.02-0.62,0.08-1.18,0.31-1.67c0.24-0.52,0.61-0.94,1.1-1.28c0.23-0.16,0.49-0.29,0.78-0.39c-0.21-2.76-0.29-5.73-0.16-8.64 c0.07-0.69,0.2-1.39,0.39-2.07c0.82-2.93,2.87-4.26,5.41-5.88c1.4-0.89,2.94-1.56,4.53-2.02c0.29-0.08,4.27-9.5,17.05,4.32 c1.78,1.93,2.89,3.46,3.14,6.83L78.23,55.98L78.23,55.98L78.23,55.98L78.23,55.98z M16.19,88.15c0.53,1.17,0,2.55-1.17,3.07 c-1.17,0.53-2.55,0-3.07-1.17c-1.3-2.91-2.37-5.94-3.15-9.06c-0.77-3.06-1.28-6.24-1.51-9.49c-0.04-0.57-0.07-1.23-0.1-1.98 c-0.03-0.8-0.04-1.46-0.04-1.98c0-1.28,1.05-2.33,2.33-2.33c1.28,0,2.33,1.05,2.33,2.33c0,0.76,0.01,1.36,0.02,1.81 c0.02,0.52,0.05,1.13,0.1,1.81c0.21,2.97,0.68,5.88,1.39,8.68C14.04,82.73,15,85.51,16.19,88.15L16.19,88.15L16.19,88.15z M26.49,32c-0.9,0.91-2.38,0.91-3.29,0.01c-0.91-0.9-0.91-2.38-0.01-3.29c2.24-2.24,5.17-4.72,8.29-6.88 c2.74-1.89,5.64-3.55,8.37-4.61c1.2-0.47,2.55,0.13,3,1.32c0.47,1.2-0.13,2.55-1.32,3c-2.37,0.92-4.94,2.39-7.41,4.1 C31.25,27.65,28.54,29.94,26.49,32L26.49,32L26.49,32z M82.83,21.65c-1.17-0.53-1.7-1.9-1.17-3.07c0.53-1.17,1.9-1.7,3.07-1.17 c4.26,1.93,8.25,4.39,11.85,7.29c3.63,2.92,6.88,6.3,9.67,10.05c0.77,1.03,0.55,2.48-0.49,3.25c-1.04,0.77-2.48,0.55-3.25-0.49 c-2.55-3.43-5.53-6.51-8.85-9.19C90.38,25.66,86.74,23.42,82.83,21.65L82.83,21.65L82.83,21.65z M112.31,71.33 c0.09-1.28,1.2-2.25,2.48-2.16c1.28,0.09,2.25,1.2,2.16,2.48c-0.24,3.18-0.75,6.27-1.49,9.26c-0.77,3.06-1.79,6.02-3.04,8.85 c-0.52,1.18-1.89,1.71-3.07,1.19c-1.18-0.52-1.71-1.89-1.19-3.07c1.15-2.6,2.09-5.31,2.78-8.1 C111.64,77.06,112.1,74.23,112.31,71.33L112.31,71.33L112.31,71.33z M108,48.44l6,4.18c0.1,0.06,0.19,0.15,0.26,0.25 c0.28,0.41,0.18,0.96-0.23,1.25l-5.97,4.13c-0.15,0.13-0.35,0.2-0.57,0.2c-0.5,0-0.9-0.4-0.9-0.9v-8.38h0 c0-0.18,0.05-0.36,0.16-0.51C107.04,48.25,107.6,48.15,108,48.44L108,48.44L108,48.44z"/></g></svg>