<?xml version="1.0" encoding="utf-8"?>
<!-- Generator: Adobe Illustrator 23.0.3, SVG Export Plug-In . SVG Version: 6.00 Build 0)  -->
<svg version="1.1" id="Layer_1" xmlns="http://www.w3.org/2000/svg" xmlns:xlink="http://www.w3.org/1999/xlink" x="0px" y="0px"
	 viewBox="0 0 512 512" style="enable-background:new 0 0 512 512;" xml:space="preserve">
<style type="text/css">
	.st0{fill:none;stroke:#1D1D1B;stroke-width:15;stroke-miterlimit:10;}
	.st1{fill:#1D1D1B;}
	.st2{fill:none;stroke:#1D1D1B;stroke-width:14;stroke-miterlimit:10;}
</style>
<path class="st0" d="M456,29.8c-0.62,7.52-1.23,14.91-1.85,22.23c-1.23,13.95-2.46,27.84-3.69,41.72
	c-1.78,21.07-3.62,42.07-5.4,63.13l-3.9,44.94c-1.3,15.53-2.74,31.12-4.1,46.65c-1.37,16.21-2.74,32.42-4.17,48.63
	c-1.37,15.8-2.74,31.53-4.1,47.33c-1.44,16.96-2.87,33.86-4.38,50.82c-1.09,13-2.26,26.06-3.35,39.06c-0.14,1.57-0.68,2.19-2.19,2.6
	c-53.83,14.98-107.59,30.1-161.42,45.08c-0.89,0.27-1.98,0.27-2.94,0c-53.56-14.98-107.18-29.96-160.74-44.94
	c-1.85-0.48-2.67-1.16-2.8-3.21c-2.05-24.69-4.24-49.32-6.36-73.94c-2.26-26.2-4.58-52.39-6.84-78.66
	c-2.12-23.87-4.1-47.81-6.16-71.75c-2.26-26.2-4.58-52.46-6.91-78.66c-2.05-23.73-4.04-47.54-6.09-71.34
	c-0.82-9.85-1.71-19.7-2.6-29.69H456z"/>
<g>
	<polygon class="st2" points="196.61,117.62 238.92,117.62 238.92,390.23 121.66,357.89 121.66,312.86 196.01,333.41 	"/>
	<polygon class="st2" points="268.84,117.62 390.34,117.62 386.71,160.03 311.56,160.03 311.56,234.38 381.67,224.11 368.98,362.52 
		268.64,390.12 268.64,344.99 331.91,327.67 337.75,272.86 268.64,283.34 	"/>
</g>
</svg>
