<?xml version="1.0" standalone="no"?>
<!DOCTYPE svg PUBLIC "-//W3C//DTD SVG 20010904//EN"
 "http://www.w3.org/TR/2001/REC-SVG-20010904/DTD/svg10.dtd">
<svg version="1.0" xmlns="http://www.w3.org/2000/svg"
 width="500.000000pt" height="500.000000pt" viewBox="0 0 500.000000 500.000000"
 preserveAspectRatio="xMidYMid meet">

<g transform="translate(0.000000,500.000000) scale(0.100000,-0.100000)"
fill="#000000" stroke="none">
<path d="M2340 4760 c-430 -25 -858 -186 -1220 -458 -105 -80 -341 -319 -427
-433 -188 -251 -322 -532 -394 -823 -47 -193 -60 -310 -60 -531 0 -298 25
-466 111 -726 112 -343 291 -632 550 -889 377 -375 846 -598 1365 -651 147
-15 463 -7 590 15 374 64 702 203 996 422 184 137 395 357 516 539 l55 83 68
-23 c105 -36 206 -49 333 -42 126 7 157 13 157 33 0 10 -15 14 -52 14 -78 0
-240 44 -340 92 -48 23 -88 44 -88 48 0 4 23 56 51 115 205 438 262 951 160
1439 -50 238 -186 562 -320 761 -288 429 -702 748 -1172 903 -298 98 -554 130
-879 112z m530 -160 c175 -31 426 -115 584 -195 501 -255 886 -699 1060 -1225
142 -427 149 -872 21 -1296 -54 -178 -145 -379 -168 -371 -44 14 -227 197
-655 651 -273 291 -501 535 -505 542 -5 9 87 123 284 351 160 186 315 362 343
391 64 67 153 112 235 119 42 4 61 10 61 19 0 12 -51 14 -285 14 -247 0 -285
-2 -285 -15 0 -10 11 -15 35 -15 44 0 75 -29 75 -71 0 -25 -57 -103 -330 -445
l-330 -414 478 -507 c494 -525 595 -623 731 -713 l80 -53 -50 -73 c-113 -168
-303 -367 -466 -491 -491 -370 -1103 -508 -1713 -387 -729 145 -1343 685
-1585 1394 -229 670 -115 1400 308 1965 348 467 879 775 1457 845 133 16 479
5 620 -20z"/>
<path d="M2060 3638 c-80 -30 -223 -38 -652 -38 -365 0 -438 -2 -438 -14 0 -9
17 -15 50 -18 68 -7 123 -45 144 -100 15 -39 16 -122 14 -834 l-3 -790 -27
-41 c-30 -45 -96 -83 -146 -83 -22 0 -32 -5 -32 -15 0 -13 69 -15 560 -15 551
0 559 0 570 20 14 26 150 408 150 420 0 28 -23 3 -48 -52 -38 -82 -111 -180
-163 -218 -23 -16 -67 -39 -98 -52 -52 -21 -74 -23 -323 -26 l-268 -3 0 405 0
406 251 0 c214 0 255 -2 279 -16 35 -21 56 -57 65 -111 16 -97 25 -33 25 172
0 205 -9 269 -25 173 -9 -55 -37 -101 -70 -116 -18 -8 -106 -12 -275 -12
l-250 0 0 415 0 415 304 0 c298 0 304 0 336 -22 43 -30 70 -82 70 -135 0 -42
15 -67 25 -41 3 8 4 86 3 175 l-3 160 -25 -9z"/>
<path d="M2540 3585 c0 -11 11 -15 35 -15 74 0 145 -57 165 -131 7 -25 10
-307 8 -817 l-3 -779 -29 -41 c-31 -46 -95 -82 -144 -82 -22 0 -32 -5 -32 -15
0 -13 39 -15 295 -15 242 0 295 2 295 14 0 8 -17 16 -46 20 -60 8 -107 37
-136 84 l-23 37 -3 755 c-2 415 0 778 3 807 4 29 16 67 28 85 26 39 98 78 144
78 23 0 33 5 33 15 0 13 -39 15 -295 15 -256 0 -295 -2 -295 -15z"/>
</g>
</svg>
