<?xml version="1.0" standalone="no"?>
<!DOCTYPE svg PUBLIC "-//W3C//DTD SVG 20010904//EN"
 "http://www.w3.org/TR/2001/REC-SVG-20010904/DTD/svg10.dtd">
<svg version="1.0" xmlns="http://www.w3.org/2000/svg"
 width="153.000000pt" height="130.000000pt" viewBox="0 0 153.000000 130.000000"
 preserveAspectRatio="xMidYMid meet">

<g transform="translate(0.000000,130.000000) scale(0.100000,-0.100000)"
fill="#000000" stroke="none">
<path d="M665 1059 c-33 -4 -86 -17 -117 -29 -60 -22 -172 -99 -182 -125 -3
-9 -19 -15 -43 -16 -33 0 -35 -1 -15 -9 27 -12 27 -12 -3 -58 -70 -106 -88
-280 -44 -417 13 -39 26 -72 29 -75 3 -3 16 -22 28 -42 29 -47 123 -133 175
-160 84 -43 147 -58 238 -58 156 0 295 65 389 182 l44 56 51 -39 c80 -61 125
-74 225 -69 31 1 29 3 -24 16 -69 17 -114 42 -177 101 l-46 43 18 67 c35 127
19 272 -41 380 -31 55 -30 59 18 73 22 7 18 8 -24 9 -39 1 -55 6 -70 23 -10
11 -45 41 -78 65 -91 68 -222 98 -351 82z m167 -33 c78 -17 114 -34 187 -88
40 -30 50 -43 40 -49 -11 -7 -10 -9 4 -9 32 0 18 -27 -78 -146 -52 -66 -95
-121 -95 -124 0 -3 48 -58 108 -121 165 -177 151 -151 106 -206 -78 -95 -146
-141 -249 -168 -112 -29 -234 -16 -339 37 -58 29 -152 113 -175 156 l-12 22
144 0 143 0 19 53 c29 81 29 85 2 41 -33 -51 -63 -65 -159 -71 l-78 -6 0 122
0 122 82 -3 c78 -3 83 -4 89 -28 4 -16 7 0 8 45 1 63 -1 67 -12 45 -11 -23
-19 -25 -90 -28 l-77 -3 0 126 0 125 85 0 c72 0 88 -3 105 -20 20 -20 20 -20
20 14 l0 34 -107 -5 -108 -4 40 36 c52 48 123 84 199 100 80 18 117 18 198 1z
m329 -268 c32 -70 34 -78 34 -188 0 -81 -5 -125 -15 -148 l-15 -33 -113 121
-113 120 86 100 c48 55 90 100 95 100 4 0 22 -33 41 -72z m-831 -402 c-13 -13
-18 -7 -39 55 -42 118 -37 235 16 352 l28 62 3 -229 c1 -144 -1 -233 -8 -240z"/>
<path d="M760 883 c49 -18 50 -21 50 -273 0 -252 -1 -255 -50 -273 -8 -3 26
-5 75 -6 69 0 84 3 65 10 -13 6 -28 15 -32 22 -4 7 -8 118 -8 248 0 247 3 262
45 272 11 3 -20 5 -70 5 -49 0 -83 -2 -75 -5z"/>
</g>
</svg>
