<?xml version="1.0" standalone="no"?>
<!DOCTYPE svg PUBLIC "-//W3C//DTD SVG 20010904//EN"
 "http://www.w3.org/TR/2001/REC-SVG-20010904/DTD/svg10.dtd">
<svg version="1.0" xmlns="http://www.w3.org/2000/svg"
 width="200.000000pt" height="200.000000pt" viewBox="0 0 200.000000 200.000000"
 preserveAspectRatio="xMidYMid meet">

<g transform="translate(0.000000,200.000000) scale(0.100000,-0.100000)"
fill="#000000" stroke="none">
<path d="M884 1899 c-81 -9 -216 -50 -289 -87 -233 -117 -412 -342 -476 -597
-28 -112 -30 -303 -5 -407 83 -351 354 -621 695 -693 106 -22 295 -20 400 5
96 23 222 79 307 137 64 44 199 180 230 232 14 24 24 31 39 26 70 -21 205 -24
205 -4 0 5 -16 9 -35 9 -35 0 -141 35 -150 50 -2 4 9 38 25 74 92 202 95 486
8 697 -127 307 -409 521 -735 559 -98 11 -118 11 -219 -1z m376 -88 c273 -92
484 -311 560 -581 39 -143 37 -349 -6 -477 -27 -80 -56 -143 -66 -143 -19 0
-74 53 -270 263 -170 182 -195 213 -185 227 7 10 69 83 139 163 114 131 133
148 175 161 l48 15 -120 0 c-92 -1 -114 -3 -92 -11 15 -5 27 -16 27 -24 0 -7
-57 -85 -126 -171 -69 -87 -128 -163 -131 -170 -7 -16 382 -427 451 -477 30
-22 52 -44 49 -50 -4 -6 -27 -38 -52 -70 -99 -127 -270 -240 -437 -288 -114
-32 -334 -33 -447 0 -318 91 -547 338 -613 662 -26 130 -16 296 25 420 102
304 337 513 652 580 24 5 107 8 184 6 126 -3 149 -6 235 -35z"/>
<path d="M795 1450 c-16 -4 -115 -8 -220 -9 -179 -2 -188 -3 -155 -17 19 -8
38 -20 42 -27 4 -7 8 -159 8 -338 0 -352 0 -352 -55 -368 -20 -6 46 -10 197
-10 l226 -1 18 48 c9 26 23 62 31 81 20 51 10 47 -25 -8 -44 -71 -75 -84 -209
-89 l-113 -4 0 166 0 166 94 0 c112 0 124 -4 142 -44 12 -29 13 -25 12 59 0
50 -3 81 -5 70 -12 -48 -30 -55 -140 -55 l-103 0 0 170 0 170 113 0 c132 0
161 -10 165 -58 6 -60 22 -32 22 38 0 39 -3 69 -7 69 -5 -1 -21 -5 -38 -9z"/>
<path d="M1047 1425 c17 -7 36 -22 42 -34 7 -13 11 -128 11 -334 0 -300 -1
-315 -20 -340 -11 -14 -30 -28 -43 -30 -12 -2 32 -4 98 -4 66 -1 111 1 100 4
-11 3 -30 14 -42 26 -23 20 -23 21 -23 339 0 209 4 326 11 339 6 12 25 27 42
34 30 13 23 14 -88 14 -111 0 -118 -1 -88 -14z"/>
</g>
</svg>
