<?xml version="1.0" encoding="iso-8859-1"?>
<!-- Generator: Adobe Illustrator 22.1.0, SVG Export Plug-In . SVG Version: 6.00 Build 0)  -->
<svg version="1.1" xmlns="http://www.w3.org/2000/svg" xmlns:xlink="http://www.w3.org/1999/xlink" x="0px" y="0px"
	 viewBox="0 0 50 50" style="enable-background:new 0 0 50 50;" xml:space="preserve">
<g id="Layer_1">
	<path d="M14,1H1v48h13h2h33V1H16H14z M14,47H3V3h11V47z M16,9.931C19.612,9.477,22.477,6.612,22.931,3h17.139
		C40.523,6.612,43.388,9.477,47,9.931v30.139c-3.612,0.453-6.477,3.319-6.931,6.931H22.931c-0.453-3.612-3.319-6.477-6.931-6.931
		V9.931z M16,42.09c2.507,0.423,4.486,2.403,4.91,4.91H16V42.09z M42.09,47c0.423-2.507,2.403-4.486,4.91-4.91V47H42.09z M47,7.91
		C44.493,7.486,42.514,5.507,42.09,3H47V7.91z M20.91,3C20.486,5.507,18.507,7.486,16,7.91V3H20.91z"/>
	<rect x="5" y="42" width="7" height="2"/>
	<rect x="5" y="38" width="7" height="2"/>
	<rect x="5" y="34" width="7" height="2"/>
	<path d="M42,18h-6v-4h-8v4h-6v14h20V18z M30,16h4v2h-4V16z M40,30H24V20h16V30z"/>
	<rect x="31" y="23" width="2" height="2"/>
</g>
<g>
</g>
</svg>
