<?xml version="1.0" encoding="UTF-8" standalone="no"?> <svg xmlns="http://www.w3.org/2000/svg" viewBox="0 0 64 64"><g id="Presentation-2" data-name="Presentation"><path d="M23,10H11a1,1,0,0,0-1,1V23a1,1,0,0,0,1,1H23a1,1,0,0,0,1-1V11A1,1,0,0,0,23,10ZM22,22H12V12H22Z"/><path d="M23,26H11a1,1,0,0,0-1,1V39a1,1,0,0,0,1,1H23a1,1,0,0,0,1-1V27A1,1,0,0,0,23,26ZM22,38H12V28H22Z"/><rect x="28" y="10" width="12" height="2"/><rect x="28" y="16" width="12" height="2"/><rect x="28" y="22" width="12" height="2"/><rect x="28" y="28" width="12" height="2"/><rect x="28" y="34" width="12" height="2"/><path d="M59,34H56.644A8.972,8.972,0,0,0,58,21.356V8h1a3,3,0,0,0,0-6H5A3,3,0,0,0,5,8H6V41a3,3,0,0,0,3,3H31v8.1a5,5,0,1,0,2,0V44h7v1a3,3,0,0,0,3,3h1V59a3,3,0,0,0,3,3h2a2.981,2.981,0,0,0,2-.78A2.981,2.981,0,0,0,53,62h2a3,3,0,0,0,3-3V48h1a3,3,0,0,0,3-3V37A3,3,0,0,0,59,34ZM35,57a3,3,0,1,1-3-3A3,3,0,0,1,35,57Zm11-9V36h4v7h2V36h4V48Zm5-14a7.008,7.008,0,0,1-7-7c0-.058.007-.114.009-.171l3.928-.8,2.747.916a1,1,0,0,0,.632,0l2.748-.916,3.927.785c0,.061.009.121.009.182A7.008,7.008,0,0,1,51,34Zm-6.608-9.289A6.99,6.99,0,0,1,57.6,24.7L54.2,24.02a.978.978,0,0,0-.512.031l-2.684.9-2.684-.9a1.012,1.012,0,0,0-.515-.031ZM4,5A1,1,0,0,1,5,4H59a1,1,0,0,1,0,2H5A1,1,0,0,1,4,5ZM40,37v5H9a1,1,0,0,1-1-1V8H56V19.522A8.993,8.993,0,0,0,45.356,34H43A3,3,0,0,0,40,37Zm3,9a1,1,0,0,1-1-1V37a1,1,0,0,1,1-1h1V46Zm6,14H47a1,1,0,0,1-1-1V50h4v9A1,1,0,0,1,49,60Zm6,0H53a1,1,0,0,1-1-1V50h4v9A1,1,0,0,1,55,60Zm5-15a1,1,0,0,1-1,1H58V36h1a1,1,0,0,1,1,1Z"/><rect x="53" y="27" width="2" height="2"/><path d="M51,31a1.6,1.6,0,0,1-1.2-.6l-1.6,1.2a3.5,3.5,0,0,0,5.6,0l-1.6-1.2A1.6,1.6,0,0,1,51,31Z"/><rect x="47" y="27" width="2" height="2"/></g></svg>