<?xml version="1.0" encoding="UTF-8" standalone="no"?> <svg id="Layer_1" data-name="Layer 1" xmlns="http://www.w3.org/2000/svg" viewBox="0 0 96 96"><path d="M43.43164,33.27148l-.74512,4.56739A1,1,0,0,0,44.15723,38.875L48,36.751l3.84277,2.124a.99887.99887,0,0,0,1.05957-.05762,1.00159,1.00159,0,0,0,.41114-.97851l-.74512-4.56739,3.14746-3.22558a.99984.99984,0,0,0-.56445-1.68652L50.8418,27.7002l-1.93653-4.125a1,1,0,0,0-1.81054,0l-1.93653,4.125-4.30957.65918a.99984.99984,0,0,0-.56445,1.68652Zm2.55664-3.6748a.99911.99911,0,0,0,.75391-.56348L48,26.35352l1.25781,2.67968a.99911.99911,0,0,0,.75391.56348l2.91308.44531-2.14062,2.19434a1.00028,1.00028,0,0,0-.27148.85937l.49511,3.03321L48.4834,34.7334a.9972.9972,0,0,0-.9668,0l-2.52441,1.39551.49511-3.03321a1.00028,1.00028,0,0,0-.27148-.85937L43.0752,30.042Z"/><rect x="47" y="1.39063" width="2" height="6.28516"/><rect x="55.04781" y="6.43062" width="6.28523" height="2.00009" transform="translate(18.60826 50.72723) rotate(-54.84316)"/><rect x="36.80953" y="4.28805" width="2.00009" height="6.28523" transform="translate(2.61857 23.12689) rotate(-35.15684)"/><path d="M84,84A10.01177,10.01177,0,0,0,74,74H20a10,10,0,0,0,0,20H74A10.01177,10.01177,0,0,0,84,84ZM12,84a8.00917,8.00917,0,0,1,8-8H74a8,8,0,0,1,0,16H20A8.00917,8.00917,0,0,1,12,84Z"/><path d="M28.15137,81.83105l-2.92774-.44726L23.90527,78.5752a1,1,0,0,0-1.81054,0l-1.31836,2.80859-2.92774.44726a.99984.99984,0,0,0-.56445,1.68653l2.14746,2.20117-.50879,3.12012a1,1,0,0,0,1.4707,1.03613L23,88.43457,25.60645,89.875a.99887.99887,0,0,0,1.05957-.05762,1.00159,1.00159,0,0,0,.41113-.97851l-.50879-3.12012,2.14746-2.20117a.99984.99984,0,0,0-.56445-1.68653Zm-3.36719,2.85254a1.00122,1.00122,0,0,0-.27148.85938l.25878,1.58594L23.4834,86.417a.9972.9972,0,0,0-.9668,0l-1.28808.71192L21.4873,85.543a1.00122,1.00122,0,0,0-.27148-.85938L20.0752,83.51465l1.53125-.23438a.99911.99911,0,0,0,.7539-.56347L23,81.35352l.63965,1.36328a.99911.99911,0,0,0,.7539.56347l1.53125.23438Z"/><path d="M44.15137,81.83105l-2.92774-.44726L39.90527,78.5752a1,1,0,0,0-1.81054,0l-1.31836,2.80859-2.92774.44726a.99984.99984,0,0,0-.56445,1.68653l2.14746,2.20117-.50879,3.12012a1,1,0,0,0,1.4707,1.03613L39,88.43457,41.60645,89.875a.99887.99887,0,0,0,1.05957-.05762,1.00159,1.00159,0,0,0,.41113-.97851l-.50879-3.12012,2.14746-2.20117a.99984.99984,0,0,0-.56445-1.68653Zm-3.36719,2.85254a1.00122,1.00122,0,0,0-.27148.85938l.25878,1.58594L39.4834,86.417a.9972.9972,0,0,0-.9668,0l-1.28808.71192L37.4873,85.543a1.00122,1.00122,0,0,0-.27148-.85938L36.0752,83.51465l1.53125-.23438a.99911.99911,0,0,0,.7539-.56347L39,81.35352l.63965,1.36328a.99911.99911,0,0,0,.7539.56347l1.53125.23438Z"/><path d="M60.15137,81.83105l-2.92774-.44726L55.90527,78.5752a1,1,0,0,0-1.81054,0l-1.31836,2.80859-2.92774.44726a.99984.99984,0,0,0-.56445,1.68653l2.14746,2.20117-.50879,3.12012a1,1,0,0,0,1.4707,1.03613L55,88.43457,57.60645,89.875a.99887.99887,0,0,0,1.05957-.05762,1.00159,1.00159,0,0,0,.41113-.97851l-.50879-3.12012,2.14746-2.20117a.99984.99984,0,0,0-.56445-1.68653Zm-3.36719,2.85254a1.00122,1.00122,0,0,0-.27148.85938l.25878,1.58594L55.4834,86.417a.9972.9972,0,0,0-.9668,0l-1.28808.71192L53.4873,85.543a1.00122,1.00122,0,0,0-.27148-.85938L52.0752,83.51465l1.53125-.23438a.99911.99911,0,0,0,.7539-.56347L55,81.35352l.63965,1.36328a.99911.99911,0,0,0,.7539.56347l1.53125.23438Z"/><path d="M74.666,89.81738a1.00159,1.00159,0,0,0,.41113-.97851l-.50879-3.12012,2.14746-2.20117a.99984.99984,0,0,0-.56445-1.68653l-2.92774-.44726L71.90527,78.5752a1,1,0,0,0-1.81054,0l-1.31836,2.80859-2.92774.44726a.99984.99984,0,0,0-.56445,1.68653l2.14746,2.20117-.50879,3.12012a1,1,0,0,0,1.4707,1.03613L71,88.43457,73.60645,89.875a.99887.99887,0,0,0,1.05957-.05762Zm-1.88184-5.13379a1.00122,1.00122,0,0,0-.27148.85938l.25878,1.58594L71.4834,86.417a.9972.9972,0,0,0-.9668,0l-1.28808.71192L69.4873,85.543a1.00122,1.00122,0,0,0-.27148-.85938L68.0752,83.51465l1.53125-.23438a.99911.99911,0,0,0,.7539-.56347L71,81.35352l.63965,1.36328a.99911.99911,0,0,0,.7539.56347l1.53125.23438Z"/><rect x="47" y="58" width="2" height="9"/><rect x="47" y="69" width="2" height="2"/><rect x="36" y="53" width="2" height="9"/><rect x="36" y="64" width="2" height="2"/><rect x="58" y="53" width="2" height="9"/><rect x="58" y="64" width="2" height="2"/><path d="M48,45.001a14,14,0,1,0-14-14A14.01573,14.01573,0,0,0,48,45.001Zm0-26a12,12,0,1,1-12,12A12.01312,12.01312,0,0,1,48,19.001Z"/><path d="M12,22.001a1.0004,1.0004,0,0,0-.75293,1.6582l6.457,7.37891-6.49316,8.34863A.99985.99985,0,0,0,12,41.001H30.70654a19.95416,19.95416,0,0,0,34.58692,0H84a1.00041,1.00041,0,0,0,.75293-1.65821l-6.457-7.3789,6.49316-8.34864A.99984.99984,0,0,0,84,22.001H65.83655a19.96023,19.96023,0,0,0-35.6731,0Zm2.04492,17,5.74414-7.38575a.99908.99908,0,0,0-.03613-1.27246L14.2041,24.001H29.28864a19.76852,19.76852,0,0,0,.39331,15Zm52.66644-15H81.95508l-5.74414,7.38574a.99908.99908,0,0,0,.03613,1.27246L81.7959,39.001H66.31805a19.76852,19.76852,0,0,0,.39331-15ZM48,13A18,18,0,1,1,30,31,18.02094,18.02094,0,0,1,48,13Z"/></svg>